<svg xmlns="http://www.w3.org/2000/svg" xmlns:xlink="http://www.w3.org/1999/xlink" id="Layer_1" x="0" y="0" version="1.1" viewBox="0 0 687.3 201.8" xml:space="preserve" style="enable-background:new 0 0 687.3 201.8"><style type="text/css">.st0{fill:#4e4e4e}.st1{fill:#5c4c9f}.st2{fill:#1f1646}.st3{enable-background:new}.st4{fill:#010101}</style><switch><g><g><g><path d="M193.2,164.9l-3.9,11c-0.1,0.2-0.2,0.3-0.4,0.3h-3.7c-0.3,0-0.4-0.1-0.3-0.4l11.8-33 c0.1-0.2,0.1-0.5,0.2-0.7c0.1-0.3,0.1-0.8,0.2-1.5c0-0.2,0.1-0.3,0.3-0.3h5.3c0.2,0,0.3,0.1,0.3,0.3l12.8,35.2 c0.1,0.3,0,0.4-0.2,0.4h-4.1c-0.2,0-0.3-0.1-0.4-0.3l-4-11H193.2z M205.8,160.7c-0.3-0.9-0.7-2.1-1.2-3.6 c-0.5-1.5-1.1-3.1-1.7-4.7c-0.6-1.6-1.1-3.2-1.6-4.7c-0.5-1.5-0.9-2.8-1.1-3.7h-0.1c-0.2,0.9-0.5,1.9-1,3.2 c-0.4,1.3-0.9,2.7-1.4,4.2c-0.5,1.5-1.1,3.1-1.6,4.7c-0.6,1.6-1.1,3.2-1.6,4.6H205.8z" class="st0"/><path d="M220.4,155.9c0-0.5,0-1,0-1.6c0-0.6,0-1.1-0.1-1.7c0-0.5,0-1-0.1-1.5c0-0.5,0-0.8-0.1-1 c0-0.2,0.1-0.3,0.3-0.3h3.4c0.2,0,0.4,0.1,0.5,0.3c0.1,0.3,0.1,0.6,0.2,1.1s0.1,1,0.2,1.6c2.4-2.4,5.2-3.6,8.3-3.6 c1,0,2,0.1,3,0.4c1,0.3,2,0.8,2.9,1.6c0.9,0.8,1.6,1.8,2.1,3.2c0.6,1.4,0.8,3.1,0.8,5.2v16.1c0,0.3-0.1,0.4-0.4,0.4h-3.8 c-0.3,0-0.4-0.1-0.4-0.4v-15.6c0-2.1-0.5-3.7-1.4-5c-0.9-1.3-2.3-1.9-4.2-1.9c-1.4,0-2.6,0.3-3.8,0.9c-1.1,0.6-2.1,1.4-3,2.4 v19.2c0,0.3-0.1,0.4-0.3,0.4h-3.9c-0.2,0-0.3-0.1-0.3-0.4V155.9z" class="st0"/><path d="M267,164.9l-3.9,11c-0.1,0.2-0.2,0.3-0.4,0.3h-3.7c-0.3,0-0.4-0.1-0.3-0.4l11.8-33c0.1-0.2,0.1-0.5,0.2-0.7 c0.1-0.3,0.1-0.8,0.2-1.5c0-0.2,0.1-0.3,0.3-0.3h5.3c0.2,0,0.3,0.1,0.3,0.3l12.8,35.2c0.1,0.3,0,0.4-0.2,0.4h-4.1 c-0.2,0-0.3-0.1-0.4-0.3l-4-11H267z M279.5,160.7c-0.3-0.9-0.7-2.1-1.2-3.6c-0.5-1.5-1.1-3.1-1.7-4.7c-0.6-1.6-1.1-3.2-1.6-4.7 c-0.5-1.5-0.9-2.8-1.1-3.7h-0.1c-0.2,0.9-0.5,1.9-1,3.2c-0.4,1.3-0.9,2.7-1.4,4.2c-0.5,1.5-1.1,3.1-1.6,4.7 c-0.6,1.6-1.1,3.2-1.6,4.6H279.5z" class="st0"/><path d="M305.5,176.7c-1.9,0-3.6-0.3-5.3-0.8c-1.6-0.6-3.1-1.4-4.3-2.6c-1.2-1.1-2.2-2.6-2.9-4.2 c-0.7-1.7-1-3.6-1-5.9c0-2,0.4-3.8,1.1-5.5c0.7-1.7,1.7-3.2,3-4.4c1.3-1.3,2.9-2.2,4.7-2.9c1.8-0.7,3.8-1.1,6-1.1 c0.8,0,1.4,0,1.9,0.1c0.5,0.1,1,0.1,1.5,0.2v-12c0-0.2,0.1-0.3,0.3-0.3h3.9c0.2,0,0.3,0.1,0.3,0.3v34.2c0,0.4,0,0.8,0,1.2 s0,0.9,0.1,1.4c0,0.2-0.1,0.3-0.3,0.4c-1.6,0.7-3.1,1.2-4.6,1.5C308.5,176.6,307,176.7,305.5,176.7z M310.3,153.7 c-0.4-0.2-1-0.3-1.6-0.4c-0.6-0.1-1.3-0.1-2-0.1c-1.6,0-3,0.2-4.2,0.7c-1.2,0.5-2.3,1.2-3.1,2.1c-0.9,0.9-1.5,1.9-2,3.1 c-0.5,1.2-0.7,2.5-0.7,3.9c0,1.8,0.3,3.3,0.8,4.5c0.5,1.2,1.2,2.2,2.1,3c0.9,0.8,1.9,1.3,3,1.7c1.1,0.4,2.3,0.5,3.4,0.5 c0.7,0,1.5,0,2.3-0.1c0.8-0.1,1.5-0.3,2.1-0.6V153.7z" class="st0"/><path d="M333,149.2c1.9,0,3.6,0.3,5.2,1c1.5,0.7,2.8,1.6,3.9,2.9c1.1,1.2,1.9,2.7,2.5,4.3c0.6,1.7,0.9,3.5,0.9,5.4 c0,2.1-0.3,3.9-0.9,5.6c-0.6,1.7-1.5,3.2-2.6,4.3c-1.1,1.2-2.4,2.1-3.9,2.8c-1.5,0.7-3.2,1-5,1c-2.2,0-4-0.4-5.6-1.2 c-1.6-0.8-2.9-1.8-3.9-3.1c-1-1.3-1.8-2.8-2.3-4.4c-0.5-1.6-0.7-3.3-0.7-5c0-1.9,0.3-3.7,0.9-5.4c0.6-1.7,1.4-3.1,2.5-4.4 c1.1-1.3,2.4-2.2,3.9-2.9C329.4,149.6,331.1,149.2,333,149.2z M332.8,153.2c-1.2,0-2.2,0.2-3.1,0.7c-0.9,0.5-1.7,1.1-2.4,2 c-0.7,0.9-1.2,1.9-1.6,3.1s-0.6,2.5-0.6,4c0,1.4,0.2,2.7,0.5,3.9c0.4,1.2,0.9,2.3,1.5,3.2c0.7,0.9,1.5,1.6,2.5,2.1 c1,0.5,2.1,0.8,3.4,0.8c1,0,1.9-0.2,2.8-0.6c0.9-0.4,1.7-1,2.4-1.8c0.7-0.8,1.3-1.8,1.7-3c0.4-1.2,0.7-2.7,0.7-4.4 c0-1.3-0.2-2.5-0.5-3.7c-0.3-1.2-0.8-2.2-1.4-3.2c-0.6-0.9-1.5-1.7-2.5-2.2C335.4,153.4,334.2,153.2,332.8,153.2z" class="st0"/><path d="M355.2,137.2c0.1,0,0.2,0,0.3,0c0.1,0,0.1,0.1,0.1,0.3v12.8c1.8-0.7,3.7-1.1,5.9-1.1c1.9,0,3.6,0.3,5.1,1 c1.5,0.6,2.8,1.5,3.9,2.7c1.1,1.1,1.9,2.5,2.5,4c0.6,1.5,0.9,3.2,0.9,5.1c0,2.5-0.4,4.6-1.3,6.4c-0.9,1.8-2,3.4-3.4,4.6 c-1.4,1.3-3,2.2-4.8,2.8c-1.8,0.6-3.7,0.9-5.6,0.9c-1.4,0-2.7-0.1-3.9-0.2c-1.2-0.2-2.4-0.4-3.6-0.8c-0.2,0-0.3-0.2-0.3-0.5 v-37.6c0-0.2,0.1-0.3,0.4-0.3H355.2z M369.2,162.3c0-2.8-0.8-5-2.3-6.7c-1.5-1.6-3.6-2.5-6.2-2.5c-1.2,0-2.1,0.1-2.9,0.2 c-0.8,0.2-1.5,0.4-2.2,0.7v18.2c0.5,0.2,1,0.3,1.6,0.4c0.6,0.1,1.2,0.1,2,0.1c1.3,0,2.6-0.2,3.8-0.7c1.2-0.4,2.3-1.1,3.2-2 c0.9-0.9,1.7-2,2.2-3.3S369.2,164.1,369.2,162.3z" class="st0"/><path d="M382.7,163.5c0,1.3,0.2,2.5,0.5,3.6c0.4,1.1,0.9,2.1,1.7,2.9c0.8,0.8,1.7,1.5,2.9,2c1.1,0.5,2.5,0.7,4,0.7 c1.2,0,2.4-0.1,3.5-0.4c1.1-0.2,2.2-0.6,3.3-1.1c0.2-0.1,0.3,0,0.3,0.2v3.1c0,0.3-0.1,0.4-0.3,0.5c-0.9,0.5-2,0.9-3.2,1.1 c-1.2,0.3-2.7,0.4-4.4,0.4c-2.4,0-4.3-0.4-6-1.2c-1.6-0.8-2.9-1.8-3.9-3.1c-1-1.3-1.7-2.7-2.2-4.3c-0.5-1.6-0.7-3.2-0.7-4.9 c0-1.9,0.3-3.7,0.8-5.4c0.5-1.7,1.3-3.2,2.4-4.5c1-1.3,2.3-2.3,3.8-3c1.5-0.7,3.2-1.1,5-1.1c2,0,3.6,0.4,4.9,1.1 c1.3,0.7,2.4,1.6,3.3,2.7c0.8,1.1,1.4,2.2,1.8,3.5c0.4,1.3,0.6,2.5,0.6,3.7c0,0.7,0,1.3-0.1,1.7c0,0.5-0.1,0.8-0.2,1.1 c0,0.2-0.1,0.3-0.4,0.3c-0.4,0.1-1.1,0.1-2.2,0.2c-1.1,0-2.2,0.1-3.4,0.1H382.7z M392.8,160.2c1.3,0,2.2,0,2.7,0 c0.5,0,0.7,0,0.8-0.1c0-0.1,0.1-0.2,0.1-0.3c0-0.1,0-0.2,0-0.3c0-0.5-0.1-1.1-0.3-1.8c-0.2-0.7-0.5-1.5-1-2.1 c-0.5-0.7-1.1-1.3-2-1.8c-0.8-0.5-1.9-0.7-3.1-0.7c-1.1,0-2.1,0.2-3,0.6c-0.9,0.4-1.6,0.9-2.2,1.6c-0.6,0.7-1.1,1.4-1.4,2.3 c-0.3,0.9-0.6,1.8-0.7,2.7H392.8z" class="st0"/><path d="M443,175.1c0,0.3-0.1,0.5-0.3,0.5c-0.9,0.4-2,0.7-3.2,0.8c-1.2,0.1-2.6,0.2-4.1,0.2c-2.3,0-4.5-0.3-6.7-1 c-2.2-0.7-4.1-1.8-5.9-3.3c-1.7-1.5-3.1-3.4-4.2-5.8c-1.1-2.4-1.6-5.2-1.6-8.5c0-2.7,0.5-5.2,1.4-7.5c0.9-2.3,2.2-4.2,3.8-5.8 c1.6-1.6,3.6-2.9,6-3.8c2.4-0.9,5-1.4,7.9-1.4c1.8,0,3.3,0.1,4.4,0.3c1.1,0.2,1.9,0.4,2.6,0.7c0.2,0.1,0.3,0.2,0.3,0.4v3.6 c0,0.3-0.1,0.3-0.4,0.3c-1.6-0.8-3.9-1.2-7-1.2c-2.1,0-4.1,0.3-5.8,1c-1.8,0.7-3.3,1.6-4.5,2.9c-1.3,1.2-2.2,2.7-2.9,4.5 c-0.7,1.8-1,3.7-1,5.9c0,2.8,0.5,5.2,1.4,7.1c0.9,1.9,2.1,3.4,3.6,4.5c1.4,1.1,3,1.9,4.6,2.3c1.7,0.5,3.2,0.7,4.6,0.7 c1.4,0,2.6-0.1,3.7-0.2c1.1-0.1,2.1-0.4,3.1-0.8c0.2,0,0.3,0,0.3,0.2V175.1z" class="st0"/><path d="M459,149.2c1.9,0,3.6,0.3,5.2,1c1.5,0.7,2.8,1.6,3.9,2.9c1.1,1.2,1.9,2.7,2.5,4.3c0.6,1.7,0.9,3.5,0.9,5.4 c0,2.1-0.3,3.9-0.9,5.6c-0.6,1.7-1.5,3.2-2.6,4.3c-1.1,1.2-2.4,2.1-3.9,2.8c-1.5,0.7-3.2,1-5,1c-2.2,0-4-0.4-5.6-1.2 c-1.6-0.8-2.9-1.8-3.9-3.1c-1-1.3-1.8-2.8-2.3-4.4c-0.5-1.6-0.7-3.3-0.7-5c0-1.9,0.3-3.7,0.9-5.4c0.6-1.7,1.4-3.1,2.5-4.4 c1.1-1.3,2.4-2.2,3.9-2.9C455.4,149.6,457.1,149.2,459,149.2z M458.8,153.2c-1.2,0-2.2,0.2-3.1,0.7c-0.9,0.5-1.7,1.1-2.4,2 c-0.7,0.9-1.2,1.9-1.6,3.1c-0.4,1.2-0.6,2.5-0.6,4c0,1.4,0.2,2.7,0.5,3.9c0.4,1.2,0.9,2.3,1.5,3.2c0.7,0.9,1.5,1.6,2.5,2.1 c1,0.5,2.1,0.8,3.4,0.8c1,0,1.9-0.2,2.8-0.6c0.9-0.4,1.7-1,2.4-1.8c0.7-0.8,1.3-1.8,1.7-3c0.4-1.2,0.7-2.7,0.7-4.4 c0-1.3-0.2-2.5-0.5-3.7c-0.3-1.2-0.8-2.2-1.4-3.2c-0.6-0.9-1.5-1.7-2.5-2.2C461.4,153.4,460.2,153.2,458.8,153.2z" class="st0"/><path d="M477.4,176.2c-0.2,0-0.3-0.1-0.3-0.4v-20.3c0-1.2,0-2.3-0.1-3.2c0-0.9-0.1-1.7-0.2-2.2 c0-0.2,0.1-0.3,0.3-0.3h3.4c0.2,0,0.3,0.1,0.4,0.3c0.1,0.3,0.1,0.7,0.2,1.2c0.1,0.5,0.1,1,0.1,1.4c2.4-2.3,5.1-3.4,8.1-3.4 c3.3,0,5.7,1.3,7.2,4c1.2-1.1,2.5-2.1,3.9-2.8c1.4-0.8,3.2-1.1,5.2-1.1c1,0,2,0.2,3.1,0.5c1,0.3,2,0.9,2.8,1.6 c0.8,0.8,1.5,1.8,2.1,3.2c0.5,1.3,0.8,3,0.8,5.1v16.2c0,0.2-0.1,0.3-0.4,0.3h-3.7c-0.3,0-0.4-0.1-0.4-0.4v-15.9 c0-1.8-0.4-3.4-1.3-4.7c-0.9-1.3-2.3-2-4.2-2c-1.4,0-2.6,0.3-3.7,0.8c-1.1,0.6-2.1,1.3-3,2.3c0.1,0.3,0.1,0.8,0.2,1.5 c0.1,0.7,0.1,1.3,0.1,2v15.9c0,0.3-0.1,0.4-0.4,0.4h-3.8c-0.3,0-0.4-0.1-0.4-0.4v-16c0-2.1-0.5-3.7-1.4-4.8s-2.3-1.7-4-1.7 c-1.3,0-2.4,0.2-3.4,0.7c-1,0.5-2.1,1.3-3.1,2.3v19.6c0,0.2-0.1,0.3-0.3,0.3H477.4z" class="st0"/><path d="M532.3,149.2c2,0,3.8,0.3,5.3,1c1.6,0.7,2.9,1.5,4,2.7c1.1,1.1,1.9,2.5,2.5,4.1c0.6,1.6,0.9,3.3,0.9,5.1 c0,2.5-0.4,4.6-1.3,6.5c-0.9,1.8-2.1,3.4-3.5,4.6c-1.5,1.2-3.1,2.1-5,2.7c-1.9,0.6-3.8,0.9-5.7,0.9c-0.6,0-1.1,0-1.5-0.1 c-0.4,0-0.8-0.1-1.2-0.2v10.9c0,0.2-0.1,0.3-0.3,0.4c-0.3,0-0.7,0.1-1.1,0.1c-0.4,0-0.8,0.1-1.2,0.1c-0.4,0.1-0.8,0.1-1.1,0.1 c-0.3,0-0.5,0.1-0.5,0.1c-0.2,0-0.3-0.1-0.3-0.3V154c0-0.3,0-0.6,0-1.1c0-0.5,0-0.9-0.1-1.3c0-0.1,0-0.2,0.1-0.2 c0.9-0.4,2.3-0.8,4-1.4C528,149.5,530,149.2,532.3,149.2z M531.8,153.2c-0.9,0-1.8,0.1-2.7,0.2c-0.8,0.1-1.6,0.4-2.4,0.7v18.4 c0.5,0.1,1,0.2,1.5,0.3s1.1,0.1,1.6,0.1c1.3,0,2.6-0.2,3.9-0.6c1.3-0.4,2.4-1,3.4-1.9c1-0.9,1.8-1.9,2.4-3.3 c0.6-1.3,0.9-2.9,0.9-4.7c0-2.8-0.8-5-2.3-6.7C536.7,154,534.5,153.2,531.8,153.2z" class="st0"/><path d="M569.4,171.6c0,0.5,0,0.9,0,1.3c0,0.4,0,0.8,0.1,1.3c0,0.1,0,0.2-0.1,0.2c-2,0.9-3.7,1.6-5.3,1.9 c-1.6,0.3-3.2,0.5-4.8,0.5c-1.4,0-2.8-0.2-4-0.5s-2.3-0.9-3.2-1.6c-0.9-0.7-1.6-1.6-2.1-2.7c-0.5-1.1-0.8-2.3-0.8-3.7 c0-1.4,0.3-2.7,1-3.7c0.6-1,1.5-1.9,2.6-2.6c1.1-0.7,2.4-1.2,3.8-1.5c1.5-0.3,3-0.5,4.8-0.5c1,0,1.8,0,2.4,0c0.6,0,1,0,1.3,0.1 v-1.3c0-0.4-0.1-1-0.2-1.6c-0.1-0.6-0.4-1.2-0.9-1.8c-0.4-0.6-1.1-1-1.8-1.5c-0.8-0.4-1.9-0.6-3.2-0.6c-1.3,0-2.5,0.1-3.7,0.4 c-1.2,0.3-2.2,0.7-3.2,1.2c-0.3,0.1-0.4,0-0.4-0.3v-3.3c0-0.2,0.1-0.3,0.3-0.4c1-0.5,2.2-0.9,3.6-1.2s2.7-0.4,4.2-0.4 c1.7,0,3.2,0.3,4.5,0.8s2.3,1.3,3,2.2c0.8,0.9,1.4,2,1.7,3.2s0.6,2.6,0.6,4V171.6z M565,163.6c-0.4-0.1-0.9-0.1-1.5-0.2 c-0.6,0-1.3-0.1-2.1-0.1c-2.6,0-4.6,0.4-5.9,1.3c-1.3,0.9-1.9,2-1.9,3.6c0,0.6,0.1,1.2,0.3,1.8c0.2,0.6,0.6,1.1,1.1,1.5 c0.5,0.5,1.2,0.8,2,1.1c0.8,0.3,1.8,0.4,3,0.4c1.8,0,3.5-0.3,4.9-0.9V163.6z" class="st0"/><path d="M577,155.9c0-0.5,0-1,0-1.6c0-0.6,0-1.1-0.1-1.7c0-0.5,0-1-0.1-1.5c0-0.5,0-0.8-0.1-1 c0-0.2,0.1-0.3,0.3-0.3h3.4c0.2,0,0.4,0.1,0.5,0.3c0.1,0.3,0.1,0.6,0.2,1.1s0.1,1,0.2,1.6c2.4-2.4,5.2-3.6,8.3-3.6 c1,0,2,0.1,3,0.4c1,0.3,2,0.8,2.9,1.6c0.9,0.8,1.6,1.8,2.1,3.2c0.6,1.4,0.8,3.1,0.8,5.2v16.1c0,0.3-0.1,0.4-0.4,0.4h-3.8 c-0.3,0-0.4-0.1-0.4-0.4v-15.6c0-2.1-0.5-3.7-1.4-5c-0.9-1.3-2.3-1.9-4.2-1.9c-1.4,0-2.6,0.3-3.8,0.9c-1.1,0.6-2.1,1.4-3,2.4 v19.2c0,0.3-0.1,0.4-0.3,0.4h-3.9c-0.2,0-0.3-0.1-0.3-0.4V155.9z" class="st0"/><path d="M606.6,149.8c0.2,0,0.3,0.1,0.4,0.3c1.1,3,2.1,5.6,3,7.9c0.9,2.3,1.6,4.3,2.2,5.9c0.6,1.7,1.1,3,1.5,4.2 c0.4,1.1,0.7,2,0.8,2.6c0.9-2.5,1.9-5.4,3.1-8.7c1.2-3.3,2.6-7.3,4.3-11.9c0.1-0.2,0.3-0.3,0.4-0.3h3.9c0.3,0,0.3,0.1,0.2,0.4 c-1,2.9-2.1,6-3.3,9.2c-1.2,3.2-2.4,6.4-3.7,9.6c-1.3,3.2-2.6,6.4-3.9,9.5c-1.3,3.1-2.6,6.2-3.9,9.1c-0.1,0.2-0.3,0.3-0.6,0.4 l-4.1,0.3c-0.2,0-0.3-0.1-0.2-0.4c0.8-1.7,1.7-3.5,2.6-5.6c0.9-2.1,1.9-4.2,2.8-6.4c0.1-0.2,0.1-0.4,0-0.7 c-0.2-0.5-0.5-1.3-1-2.4c-0.4-1-0.9-2.3-1.5-3.6c-0.6-1.4-1.2-2.9-1.8-4.5c-0.7-1.6-1.3-3.2-2-4.9c-0.7-1.7-1.3-3.3-2-4.9 c-0.6-1.6-1.2-3.2-1.8-4.6c-0.1-0.2,0-0.3,0.3-0.3H606.6z" class="st0"/></g><g><polygon points="111.8 14 111.8 148.6 146.2 121.2 146.2 32.7" class="st1"/><polygon points="95.8 119.2 68.1 131.3 68.1 25.7 95.8 33.9" class="st1"/><polygon points="30.9 116.1 52.1 110.5 52.1 43.1 31 39.7" class="st1"/><polygon points="259.5 32.7 230.2 80.8 200.5 32.7 184.9 32.7 184.9 121.2 199.6 121.2 199.6 56.6 229.8 105.1 260.2 56.2 260.2 121.2 274.8 121.2 274.8 32.7" class="st2"/><g><path d="M324.3,121.2l-0.1-8c-4.4,6.4-11.6,9.5-19.3,9.5c-11.2,0-19.1-7.3-19.1-17.8c0-11.5,7.3-18.3,21.9-20.6 l16-2.5v-1c0-6.6-4.9-10.2-13.4-10.2c-8.1,0-15,3.4-21,8.8V65.1c5.4-4.4,12.9-7.3,22-7.3c17.3,0,26.7,8.8,26.7,23.6v39.8H324.3 z M308.4,110.8c9.1,0,15.4-5.9,15.4-14.4V93L310,95.3c-6.7,1.1-10.1,4-10.1,8.5C300,108.1,303.5,110.8,308.4,110.8" class="st2"/><path d="M386.6,73.3c-0.6-0.4-1.9-0.5-3.8-0.5c-10.7,0-17.3,8.3-17.3,21.1v27.3H351V59.2h14.4v10.6 c3-7.2,10.4-11.9,18.4-11.9c1.6,0,2.5,0.1,2.8,0.4V73.3z" class="st2"/></g><polygon points="396 32.7 396 121.2 410.5 121.2 410.5 96.6 413.7 93.7 435.8 121.2 453.7 121.2 424.8 86.2 451.7 59.2 433.8 59.2 410.5 82.6 410.5 32.7" class="st2"/><g><path d="M508.8,116.1c-6.4,4-14.7,6.6-23.9,6.6c-20.5,0-33.4-13.9-33.4-32.6c0-18.6,12.9-32.3,31.1-32.3 c18.1,0,29.7,13.6,29.7,32c0,2,0,3.2-0.4,5.1h-45.9c1.1,8.6,8.2,15.4,19.8,15.4c7.8,0,15.4-2.8,22.9-8.3V116.1z M498,83.9 c-0.9-8.5-6.9-14.3-15.7-14.3c-8.8,0-15.3,6.9-16.3,14.3H498z" class="st2"/><path d="M549.2,109.3c2.4,0,4.9-0.5,6.8-1.9v13c-2.4,1.4-6.1,2.3-11.1,2.3c-12.5,0-19.8-7.6-19.8-20.6V71.6h-11 l25.5-32.5v20.1H556v12.4h-16.4v27.8C539.6,106.4,542.6,109.3,549.2,109.3" class="st2"/><path d="M626.4,90.2c0,18.2-14,32.5-33,32.5c-19,0-33-14.3-33-32.5s14-32.5,33-32.5 C612.3,57.7,626.4,72,626.4,90.2 M574.9,90.2c0,10.6,8.1,19.1,18.4,19.1c10.4,0,18.4-8.5,18.4-19.1s-8.1-19.1-18.4-19.1 C583,71.1,574.9,79.6,574.9,90.2" class="st2"/></g></g><g id="Layer_2_1_"><g class="st3"><path d="M626.8,46.9H638v2.4h-4.3v13h-2.7v-13h-4.3V46.9z" class="st4"/><path d="M643.9,51v11.2h-2.6V46.9h2.7l5.2,7.9l5.1-7.9h2.7v15.4h-2.6V51l-4.6,7h-1.3L643.9,51z" class="st4"/></g></g></g></g></switch></svg>